<mxfile host="app.diagrams.net" modified="2023-06-12T18:38:02.370Z" agent="Mozilla/5.0 (X11; Linux x86_64; rv:102.0) Gecko/20100101 Firefox/102.0" etag="iZBXTR03ITOlbixJmLha" version="21.3.8" type="device">
  <diagram name="Page-1" id="h5WCU1tCkTW9juqxQmXQ">
    <mxGraphModel dx="474" dy="795" grid="1" gridSize="10" guides="1" tooltips="1" connect="1" arrows="1" fold="1" page="0" pageScale="1" pageWidth="3300" pageHeight="4681" math="0" shadow="0">
      <root>
        <mxCell id="0" />
        <mxCell id="1" parent="0" />
        <mxCell id="USGGhLtMeQK2liyZ37-o-7" style="edgeStyle=orthogonalEdgeStyle;rounded=0;orthogonalLoop=1;jettySize=auto;html=1;exitX=0.5;exitY=1;exitDx=0;exitDy=0;entryX=0.5;entryY=0;entryDx=0;entryDy=0;" edge="1" parent="1" source="USGGhLtMeQK2liyZ37-o-1" target="USGGhLtMeQK2liyZ37-o-2">
          <mxGeometry relative="1" as="geometry" />
        </mxCell>
        <mxCell id="USGGhLtMeQK2liyZ37-o-26" style="edgeStyle=orthogonalEdgeStyle;rounded=0;orthogonalLoop=1;jettySize=auto;html=1;exitX=0;exitY=0.5;exitDx=0;exitDy=0;entryX=0;entryY=0.5;entryDx=0;entryDy=0;" edge="1" parent="1" source="USGGhLtMeQK2liyZ37-o-1" target="USGGhLtMeQK2liyZ37-o-13">
          <mxGeometry relative="1" as="geometry">
            <Array as="points">
              <mxPoint x="160" y="180" />
              <mxPoint x="160" y="540" />
            </Array>
          </mxGeometry>
        </mxCell>
        <mxCell id="USGGhLtMeQK2liyZ37-o-1" value="for block in world" style="rounded=0;whiteSpace=wrap;html=1;" vertex="1" parent="1">
          <mxGeometry x="200" y="160" width="120" height="40" as="geometry" />
        </mxCell>
        <mxCell id="USGGhLtMeQK2liyZ37-o-8" style="edgeStyle=orthogonalEdgeStyle;rounded=0;orthogonalLoop=1;jettySize=auto;html=1;exitX=0.5;exitY=1;exitDx=0;exitDy=0;entryX=0.5;entryY=0;entryDx=0;entryDy=0;" edge="1" parent="1" source="USGGhLtMeQK2liyZ37-o-2" target="USGGhLtMeQK2liyZ37-o-3">
          <mxGeometry relative="1" as="geometry" />
        </mxCell>
        <mxCell id="USGGhLtMeQK2liyZ37-o-18" style="edgeStyle=orthogonalEdgeStyle;rounded=0;orthogonalLoop=1;jettySize=auto;html=1;exitX=1;exitY=0.5;exitDx=0;exitDy=0;entryX=1;entryY=0.5;entryDx=0;entryDy=0;" edge="1" parent="1" source="USGGhLtMeQK2liyZ37-o-2" target="USGGhLtMeQK2liyZ37-o-1">
          <mxGeometry relative="1" as="geometry">
            <Array as="points">
              <mxPoint x="360" y="240" />
              <mxPoint x="360" y="180" />
            </Array>
          </mxGeometry>
        </mxCell>
        <mxCell id="USGGhLtMeQK2liyZ37-o-2" value="if block is not air" style="rounded=0;whiteSpace=wrap;html=1;" vertex="1" parent="1">
          <mxGeometry x="200" y="220" width="120" height="40" as="geometry" />
        </mxCell>
        <mxCell id="USGGhLtMeQK2liyZ37-o-9" style="edgeStyle=orthogonalEdgeStyle;rounded=0;orthogonalLoop=1;jettySize=auto;html=1;exitX=0.5;exitY=1;exitDx=0;exitDy=0;entryX=0.5;entryY=0;entryDx=0;entryDy=0;" edge="1" parent="1" source="USGGhLtMeQK2liyZ37-o-3" target="USGGhLtMeQK2liyZ37-o-4">
          <mxGeometry relative="1" as="geometry" />
        </mxCell>
        <mxCell id="USGGhLtMeQK2liyZ37-o-17" style="edgeStyle=orthogonalEdgeStyle;rounded=0;orthogonalLoop=1;jettySize=auto;html=1;exitX=1;exitY=0.5;exitDx=0;exitDy=0;" edge="1" parent="1" source="USGGhLtMeQK2liyZ37-o-3">
          <mxGeometry relative="1" as="geometry">
            <mxPoint x="320.20000000000005" y="180" as="targetPoint" />
            <Array as="points">
              <mxPoint x="360" y="300" />
              <mxPoint x="360" y="180" />
            </Array>
          </mxGeometry>
        </mxCell>
        <mxCell id="USGGhLtMeQK2liyZ37-o-3" value="if block is visible" style="rounded=0;whiteSpace=wrap;html=1;" vertex="1" parent="1">
          <mxGeometry x="200" y="280" width="120" height="40" as="geometry" />
        </mxCell>
        <mxCell id="USGGhLtMeQK2liyZ37-o-10" style="edgeStyle=orthogonalEdgeStyle;rounded=0;orthogonalLoop=1;jettySize=auto;html=1;exitX=0.5;exitY=1;exitDx=0;exitDy=0;entryX=0.5;entryY=0;entryDx=0;entryDy=0;" edge="1" parent="1" source="USGGhLtMeQK2liyZ37-o-4" target="USGGhLtMeQK2liyZ37-o-6">
          <mxGeometry relative="1" as="geometry" />
        </mxCell>
        <mxCell id="USGGhLtMeQK2liyZ37-o-4" value="&lt;div&gt;calculate sprite coordinates&lt;br&gt;&lt;/div&gt;" style="rounded=0;whiteSpace=wrap;html=1;" vertex="1" parent="1">
          <mxGeometry x="200" y="340" width="120" height="40" as="geometry" />
        </mxCell>
        <mxCell id="USGGhLtMeQK2liyZ37-o-12" style="edgeStyle=orthogonalEdgeStyle;rounded=0;orthogonalLoop=1;jettySize=auto;html=1;exitX=1;exitY=0.5;exitDx=0;exitDy=0;entryX=1;entryY=0.5;entryDx=0;entryDy=0;" edge="1" parent="1" source="USGGhLtMeQK2liyZ37-o-5" target="USGGhLtMeQK2liyZ37-o-1">
          <mxGeometry relative="1" as="geometry">
            <Array as="points">
              <mxPoint x="360" y="480" />
              <mxPoint x="360" y="180" />
            </Array>
          </mxGeometry>
        </mxCell>
        <mxCell id="USGGhLtMeQK2liyZ37-o-5" value="allocate one sprite" style="rounded=0;whiteSpace=wrap;html=1;" vertex="1" parent="1">
          <mxGeometry x="200" y="460" width="120" height="40" as="geometry" />
        </mxCell>
        <mxCell id="USGGhLtMeQK2liyZ37-o-11" style="edgeStyle=orthogonalEdgeStyle;rounded=0;orthogonalLoop=1;jettySize=auto;html=1;exitX=0.5;exitY=1;exitDx=0;exitDy=0;entryX=0.5;entryY=0;entryDx=0;entryDy=0;" edge="1" parent="1" source="USGGhLtMeQK2liyZ37-o-6" target="USGGhLtMeQK2liyZ37-o-5">
          <mxGeometry relative="1" as="geometry" />
        </mxCell>
        <mxCell id="USGGhLtMeQK2liyZ37-o-16" style="edgeStyle=orthogonalEdgeStyle;rounded=0;orthogonalLoop=1;jettySize=auto;html=1;exitX=0;exitY=0.5;exitDx=0;exitDy=0;entryX=0;entryY=0.5;entryDx=0;entryDy=0;" edge="1" parent="1" source="USGGhLtMeQK2liyZ37-o-6" target="USGGhLtMeQK2liyZ37-o-13">
          <mxGeometry relative="1" as="geometry">
            <Array as="points">
              <mxPoint x="160" y="420" />
              <mxPoint x="160" y="540" />
            </Array>
          </mxGeometry>
        </mxCell>
        <mxCell id="USGGhLtMeQK2liyZ37-o-6" value="&lt;div&gt;if sprites are&lt;/div&gt;&lt;div&gt;&amp;nbsp;available&lt;/div&gt;" style="rounded=0;whiteSpace=wrap;html=1;" vertex="1" parent="1">
          <mxGeometry x="200" y="400" width="120" height="40" as="geometry" />
        </mxCell>
        <mxCell id="USGGhLtMeQK2liyZ37-o-30" style="edgeStyle=orthogonalEdgeStyle;rounded=0;orthogonalLoop=1;jettySize=auto;html=1;exitX=0.5;exitY=1;exitDx=0;exitDy=0;entryX=0.5;entryY=0;entryDx=0;entryDy=0;" edge="1" parent="1" source="USGGhLtMeQK2liyZ37-o-13" target="USGGhLtMeQK2liyZ37-o-29">
          <mxGeometry relative="1" as="geometry" />
        </mxCell>
        <mxCell id="USGGhLtMeQK2liyZ37-o-13" value="&lt;div&gt;hide remaining&lt;span&gt;&lt;/span&gt; &lt;span&gt;&lt;/span&gt;&lt;/div&gt;&lt;div&gt;unallocated&lt;/div&gt;" style="rounded=0;whiteSpace=wrap;html=1;" vertex="1" parent="1">
          <mxGeometry x="200" y="520" width="120" height="40" as="geometry" />
        </mxCell>
        <mxCell id="USGGhLtMeQK2liyZ37-o-20" value="true" style="text;html=1;strokeColor=none;fillColor=none;align=center;verticalAlign=middle;whiteSpace=wrap;rounded=0;" vertex="1" parent="1">
          <mxGeometry x="260" y="440" width="40" height="20" as="geometry" />
        </mxCell>
        <mxCell id="USGGhLtMeQK2liyZ37-o-21" value="false" style="text;html=1;strokeColor=none;fillColor=none;align=center;verticalAlign=middle;whiteSpace=wrap;rounded=0;" vertex="1" parent="1">
          <mxGeometry x="320" y="230" width="40" height="10" as="geometry" />
        </mxCell>
        <mxCell id="USGGhLtMeQK2liyZ37-o-22" value="false" style="text;html=1;strokeColor=none;fillColor=none;align=center;verticalAlign=middle;whiteSpace=wrap;rounded=0;" vertex="1" parent="1">
          <mxGeometry x="320" y="290" width="40" height="10" as="geometry" />
        </mxCell>
        <mxCell id="USGGhLtMeQK2liyZ37-o-23" value="false" style="text;html=1;strokeColor=none;fillColor=none;align=center;verticalAlign=middle;whiteSpace=wrap;rounded=0;" vertex="1" parent="1">
          <mxGeometry x="160" y="410" width="40" height="10" as="geometry" />
        </mxCell>
        <mxCell id="USGGhLtMeQK2liyZ37-o-24" value="true" style="text;html=1;strokeColor=none;fillColor=none;align=center;verticalAlign=middle;whiteSpace=wrap;rounded=0;" vertex="1" parent="1">
          <mxGeometry x="260" y="320" width="40" height="20" as="geometry" />
        </mxCell>
        <mxCell id="USGGhLtMeQK2liyZ37-o-25" value="true" style="text;html=1;strokeColor=none;fillColor=none;align=center;verticalAlign=middle;whiteSpace=wrap;rounded=0;" vertex="1" parent="1">
          <mxGeometry x="260" y="260" width="40" height="20" as="geometry" />
        </mxCell>
        <mxCell id="USGGhLtMeQK2liyZ37-o-27" value="end" style="text;html=1;strokeColor=none;fillColor=none;align=center;verticalAlign=middle;whiteSpace=wrap;rounded=0;" vertex="1" parent="1">
          <mxGeometry x="160" y="170" width="40" height="10" as="geometry" />
        </mxCell>
        <mxCell id="USGGhLtMeQK2liyZ37-o-31" style="edgeStyle=orthogonalEdgeStyle;rounded=0;orthogonalLoop=1;jettySize=auto;html=1;exitX=0.5;exitY=1;exitDx=0;exitDy=0;entryX=0.5;entryY=0;entryDx=0;entryDy=0;" edge="1" parent="1" source="USGGhLtMeQK2liyZ37-o-28" target="USGGhLtMeQK2liyZ37-o-1">
          <mxGeometry relative="1" as="geometry" />
        </mxCell>
        <mxCell id="USGGhLtMeQK2liyZ37-o-28" value="start" style="ellipse;whiteSpace=wrap;html=1;" vertex="1" parent="1">
          <mxGeometry x="200" y="100" width="120" height="40" as="geometry" />
        </mxCell>
        <mxCell id="USGGhLtMeQK2liyZ37-o-29" value="end" style="ellipse;whiteSpace=wrap;html=1;" vertex="1" parent="1">
          <mxGeometry x="200" y="580" width="120" height="40" as="geometry" />
        </mxCell>
        <mxCell id="USGGhLtMeQK2liyZ37-o-32" value="" style="rounded=0;whiteSpace=wrap;html=1;fillColor=none;strokeColor=none;" vertex="1" parent="1">
          <mxGeometry x="200" y="575" width="120" height="50" as="geometry" />
        </mxCell>
        <mxCell id="USGGhLtMeQK2liyZ37-o-33" value="" style="rounded=0;whiteSpace=wrap;html=1;fillColor=none;strokeColor=none;" vertex="1" parent="1">
          <mxGeometry x="200" y="95" width="120" height="50" as="geometry" />
        </mxCell>
      </root>
    </mxGraphModel>
  </diagram>
</mxfile>
